<mxfile host="app.diagrams.net" modified="2020-05-04T08:34:08.847Z" agent="5.0 (Windows NT 10.0; Win64; x64) AppleWebKit/537.36 (KHTML, like Gecko) Chrome/81.0.4044.129 Safari/537.36" etag="aBlmrix7DS74GyN7dHib" version="13.0.2" type="github">
  <diagram id="YZpsiEZgugOvdtF6i5dn" name="Page-1">
    <mxGraphModel dx="1447" dy="820" grid="1" gridSize="10" guides="1" tooltips="1" connect="1" arrows="1" fold="1" page="1" pageScale="1" pageWidth="1100" pageHeight="850" math="0" shadow="0">
      <root>
        <mxCell id="0" />
        <mxCell id="1" parent="0" />
        <mxCell id="XrwRG26yM8gOVDg1mBpr-1" value="Sistem Informasi Penjualan" style="ellipse;whiteSpace=wrap;html=1;aspect=fixed;" vertex="1" parent="1">
          <mxGeometry x="485" y="30" width="130" height="130" as="geometry" />
        </mxCell>
        <mxCell id="XrwRG26yM8gOVDg1mBpr-7" value="" style="edgeStyle=elbowEdgeStyle;elbow=horizontal;endArrow=classic;html=1;exitX=0;exitY=0.5;exitDx=0;exitDy=0;entryX=0.5;entryY=0;entryDx=0;entryDy=0;" edge="1" parent="1" source="XrwRG26yM8gOVDg1mBpr-1">
          <mxGeometry width="50" height="50" relative="1" as="geometry">
            <mxPoint x="180" y="220" as="sourcePoint" />
            <mxPoint x="100" y="240" as="targetPoint" />
            <Array as="points">
              <mxPoint x="100" y="160" />
            </Array>
          </mxGeometry>
        </mxCell>
        <mxCell id="XrwRG26yM8gOVDg1mBpr-9" value="" style="edgeStyle=elbowEdgeStyle;elbow=horizontal;endArrow=classic;html=1;exitX=0;exitY=1;exitDx=0;exitDy=0;entryX=0.5;entryY=0;entryDx=0;entryDy=0;" edge="1" parent="1" source="XrwRG26yM8gOVDg1mBpr-1" target="XrwRG26yM8gOVDg1mBpr-16">
          <mxGeometry width="50" height="50" relative="1" as="geometry">
            <mxPoint x="370.0000000000002" y="105" as="sourcePoint" />
            <mxPoint x="260" y="240" as="targetPoint" />
            <Array as="points">
              <mxPoint x="330" y="190" />
            </Array>
          </mxGeometry>
        </mxCell>
        <mxCell id="XrwRG26yM8gOVDg1mBpr-10" value="" style="endArrow=classic;html=1;exitX=0.5;exitY=1;exitDx=0;exitDy=0;entryX=0.5;entryY=0;entryDx=0;entryDy=0;" edge="1" parent="1" source="XrwRG26yM8gOVDg1mBpr-1" target="XrwRG26yM8gOVDg1mBpr-17">
          <mxGeometry width="50" height="50" relative="1" as="geometry">
            <mxPoint x="410" y="240" as="sourcePoint" />
            <mxPoint x="425" y="240" as="targetPoint" />
          </mxGeometry>
        </mxCell>
        <mxCell id="XrwRG26yM8gOVDg1mBpr-11" value="" style="edgeStyle=segmentEdgeStyle;endArrow=classic;html=1;exitX=1;exitY=1;exitDx=0;exitDy=0;entryX=0.5;entryY=0;entryDx=0;entryDy=0;" edge="1" parent="1" source="XrwRG26yM8gOVDg1mBpr-1" target="XrwRG26yM8gOVDg1mBpr-18">
          <mxGeometry width="50" height="50" relative="1" as="geometry">
            <mxPoint x="540" y="180" as="sourcePoint" />
            <mxPoint x="590" y="240" as="targetPoint" />
            <Array as="points">
              <mxPoint x="760" y="141" />
            </Array>
          </mxGeometry>
        </mxCell>
        <mxCell id="XrwRG26yM8gOVDg1mBpr-12" value="" style="edgeStyle=segmentEdgeStyle;endArrow=classic;html=1;exitX=1;exitY=0.5;exitDx=0;exitDy=0;entryX=0.5;entryY=0;entryDx=0;entryDy=0;" edge="1" parent="1" source="XrwRG26yM8gOVDg1mBpr-1" target="XrwRG26yM8gOVDg1mBpr-19">
          <mxGeometry width="50" height="50" relative="1" as="geometry">
            <mxPoint x="580" y="110" as="sourcePoint" />
            <mxPoint x="760" y="240" as="targetPoint" />
          </mxGeometry>
        </mxCell>
        <mxCell id="XrwRG26yM8gOVDg1mBpr-23" value="" style="edgeStyle=orthogonalEdgeStyle;rounded=0;orthogonalLoop=1;jettySize=auto;html=1;" edge="1" parent="1" source="XrwRG26yM8gOVDg1mBpr-15" target="XrwRG26yM8gOVDg1mBpr-22">
          <mxGeometry relative="1" as="geometry" />
        </mxCell>
        <mxCell id="XrwRG26yM8gOVDg1mBpr-15" value="Konsumen" style="ellipse;whiteSpace=wrap;html=1;aspect=fixed;" vertex="1" parent="1">
          <mxGeometry x="60" y="240" width="80" height="80" as="geometry" />
        </mxCell>
        <mxCell id="XrwRG26yM8gOVDg1mBpr-22" value="Nota Pembelian" style="ellipse;whiteSpace=wrap;html=1;aspect=fixed;" vertex="1" parent="1">
          <mxGeometry y="400" width="80" height="80" as="geometry" />
        </mxCell>
        <mxCell id="XrwRG26yM8gOVDg1mBpr-27" value="" style="edgeStyle=orthogonalEdgeStyle;rounded=0;orthogonalLoop=1;jettySize=auto;html=1;exitX=0;exitY=1;exitDx=0;exitDy=0;" edge="1" parent="1" source="XrwRG26yM8gOVDg1mBpr-16" target="XrwRG26yM8gOVDg1mBpr-26">
          <mxGeometry relative="1" as="geometry" />
        </mxCell>
        <mxCell id="XrwRG26yM8gOVDg1mBpr-16" value="Pegawai" style="ellipse;whiteSpace=wrap;html=1;aspect=fixed;" vertex="1" parent="1">
          <mxGeometry x="290" y="240" width="80" height="80" as="geometry" />
        </mxCell>
        <mxCell id="XrwRG26yM8gOVDg1mBpr-26" value="Data_Order" style="ellipse;whiteSpace=wrap;html=1;aspect=fixed;" vertex="1" parent="1">
          <mxGeometry x="200" y="400" width="80" height="80" as="geometry" />
        </mxCell>
        <mxCell id="XrwRG26yM8gOVDg1mBpr-17" value="Supplier" style="ellipse;whiteSpace=wrap;html=1;aspect=fixed;" vertex="1" parent="1">
          <mxGeometry x="510" y="230" width="80" height="80" as="geometry" />
        </mxCell>
        <mxCell id="XrwRG26yM8gOVDg1mBpr-18" value="Bag. Keuangan" style="ellipse;whiteSpace=wrap;html=1;aspect=fixed;" vertex="1" parent="1">
          <mxGeometry x="720" y="240" width="80" height="80" as="geometry" />
        </mxCell>
        <mxCell id="XrwRG26yM8gOVDg1mBpr-19" value="Pimpinan" style="ellipse;whiteSpace=wrap;html=1;aspect=fixed;" vertex="1" parent="1">
          <mxGeometry x="930" y="230" width="80" height="80" as="geometry" />
        </mxCell>
        <mxCell id="XrwRG26yM8gOVDg1mBpr-24" value="Data Pembelian Pembayaran" style="ellipse;whiteSpace=wrap;html=1;aspect=fixed;" vertex="1" parent="1">
          <mxGeometry x="100" y="400" width="80" height="80" as="geometry" />
        </mxCell>
        <mxCell id="XrwRG26yM8gOVDg1mBpr-25" value="" style="edgeStyle=orthogonalEdgeStyle;rounded=0;orthogonalLoop=1;jettySize=auto;html=1;exitX=0.5;exitY=1;exitDx=0;exitDy=0;entryX=0.5;entryY=0;entryDx=0;entryDy=0;" edge="1" parent="1" source="XrwRG26yM8gOVDg1mBpr-15" target="XrwRG26yM8gOVDg1mBpr-24">
          <mxGeometry relative="1" as="geometry">
            <mxPoint x="110" y="330" as="sourcePoint" />
            <mxPoint x="50" y="410" as="targetPoint" />
          </mxGeometry>
        </mxCell>
        <mxCell id="XrwRG26yM8gOVDg1mBpr-28" value="Data_barang" style="ellipse;whiteSpace=wrap;html=1;aspect=fixed;" vertex="1" parent="1">
          <mxGeometry x="290" y="400" width="80" height="80" as="geometry" />
        </mxCell>
        <mxCell id="XrwRG26yM8gOVDg1mBpr-31" value="" style="edgeStyle=orthogonalEdgeStyle;rounded=0;orthogonalLoop=1;jettySize=auto;html=1;exitX=0.5;exitY=1;exitDx=0;exitDy=0;entryX=0.5;entryY=0;entryDx=0;entryDy=0;" edge="1" parent="1" source="XrwRG26yM8gOVDg1mBpr-16" target="XrwRG26yM8gOVDg1mBpr-28">
          <mxGeometry relative="1" as="geometry">
            <mxPoint x="270" y="329.9999999999999" as="sourcePoint" />
            <mxPoint x="240" y="410" as="targetPoint" />
            <Array as="points">
              <mxPoint x="330" y="380" />
              <mxPoint x="330" y="380" />
            </Array>
          </mxGeometry>
        </mxCell>
        <mxCell id="XrwRG26yM8gOVDg1mBpr-33" value="Data_Transaksi" style="ellipse;whiteSpace=wrap;html=1;aspect=fixed;" vertex="1" parent="1">
          <mxGeometry x="380" y="400" width="80" height="80" as="geometry" />
        </mxCell>
        <mxCell id="XrwRG26yM8gOVDg1mBpr-34" value="" style="edgeStyle=orthogonalEdgeStyle;rounded=0;orthogonalLoop=1;jettySize=auto;html=1;exitX=1;exitY=1;exitDx=0;exitDy=0;entryX=0.5;entryY=0;entryDx=0;entryDy=0;" edge="1" parent="1" source="XrwRG26yM8gOVDg1mBpr-16" target="XrwRG26yM8gOVDg1mBpr-33">
          <mxGeometry relative="1" as="geometry">
            <mxPoint x="300.0000000000002" y="290" as="sourcePoint" />
            <mxPoint x="240.00000000000023" y="410" as="targetPoint" />
          </mxGeometry>
        </mxCell>
        <mxCell id="XrwRG26yM8gOVDg1mBpr-36" value="Data_Order" style="ellipse;whiteSpace=wrap;html=1;aspect=fixed;" vertex="1" parent="1">
          <mxGeometry x="470" y="400" width="80" height="80" as="geometry" />
        </mxCell>
        <mxCell id="XrwRG26yM8gOVDg1mBpr-37" value="" style="edgeStyle=orthogonalEdgeStyle;rounded=0;orthogonalLoop=1;jettySize=auto;html=1;exitX=0;exitY=1;exitDx=0;exitDy=0;entryX=0.5;entryY=0;entryDx=0;entryDy=0;" edge="1" parent="1" source="XrwRG26yM8gOVDg1mBpr-17" target="XrwRG26yM8gOVDg1mBpr-36">
          <mxGeometry relative="1" as="geometry">
            <mxPoint x="368.2842712474619" y="318.2842712474619" as="sourcePoint" />
            <mxPoint x="430" y="410" as="targetPoint" />
            <Array as="points">
              <mxPoint x="510" y="298" />
            </Array>
          </mxGeometry>
        </mxCell>
        <mxCell id="XrwRG26yM8gOVDg1mBpr-38" value="Data_Barang&lt;br&gt;Faktur" style="ellipse;whiteSpace=wrap;html=1;aspect=fixed;" vertex="1" parent="1">
          <mxGeometry x="560" y="400" width="80" height="80" as="geometry" />
        </mxCell>
        <mxCell id="XrwRG26yM8gOVDg1mBpr-39" value="" style="edgeStyle=orthogonalEdgeStyle;rounded=0;orthogonalLoop=1;jettySize=auto;html=1;exitX=1;exitY=1;exitDx=0;exitDy=0;entryX=0.5;entryY=0;entryDx=0;entryDy=0;" edge="1" parent="1" source="XrwRG26yM8gOVDg1mBpr-17" target="XrwRG26yM8gOVDg1mBpr-38">
          <mxGeometry relative="1" as="geometry">
            <mxPoint x="531.7157287525379" y="308.28427124746213" as="sourcePoint" />
            <mxPoint x="520" y="410" as="targetPoint" />
            <Array as="points">
              <mxPoint x="600" y="298" />
            </Array>
          </mxGeometry>
        </mxCell>
        <mxCell id="XrwRG26yM8gOVDg1mBpr-40" value="Data_Barang&lt;br&gt;Faktur" style="ellipse;whiteSpace=wrap;html=1;aspect=fixed;" vertex="1" parent="1">
          <mxGeometry x="670" y="400" width="80" height="80" as="geometry" />
        </mxCell>
        <mxCell id="XrwRG26yM8gOVDg1mBpr-41" value="" style="edgeStyle=orthogonalEdgeStyle;rounded=0;orthogonalLoop=1;jettySize=auto;html=1;exitX=0;exitY=1;exitDx=0;exitDy=0;entryX=0.5;entryY=0;entryDx=0;entryDy=0;" edge="1" parent="1" source="XrwRG26yM8gOVDg1mBpr-18" target="XrwRG26yM8gOVDg1mBpr-40">
          <mxGeometry relative="1" as="geometry">
            <mxPoint x="588.2842712474619" y="308.2842712474619" as="sourcePoint" />
            <mxPoint x="610" y="410" as="targetPoint" />
            <Array as="points">
              <mxPoint x="710" y="308" />
            </Array>
          </mxGeometry>
        </mxCell>
        <mxCell id="XrwRG26yM8gOVDg1mBpr-42" value="Data_Order&lt;br&gt;Cabang" style="ellipse;whiteSpace=wrap;html=1;aspect=fixed;" vertex="1" parent="1">
          <mxGeometry x="770" y="400" width="80" height="80" as="geometry" />
        </mxCell>
        <mxCell id="XrwRG26yM8gOVDg1mBpr-43" value="" style="edgeStyle=orthogonalEdgeStyle;rounded=0;orthogonalLoop=1;jettySize=auto;html=1;exitX=1;exitY=1;exitDx=0;exitDy=0;entryX=0.5;entryY=0;entryDx=0;entryDy=0;" edge="1" parent="1" source="XrwRG26yM8gOVDg1mBpr-18" target="XrwRG26yM8gOVDg1mBpr-42">
          <mxGeometry relative="1" as="geometry">
            <mxPoint x="741.7157287525379" y="318.28427124746224" as="sourcePoint" />
            <mxPoint x="700" y="410" as="targetPoint" />
            <Array as="points">
              <mxPoint x="810" y="308" />
            </Array>
          </mxGeometry>
        </mxCell>
        <mxCell id="XrwRG26yM8gOVDg1mBpr-44" value="Laporan" style="ellipse;whiteSpace=wrap;html=1;aspect=fixed;" vertex="1" parent="1">
          <mxGeometry x="930" y="400" width="80" height="80" as="geometry" />
        </mxCell>
        <mxCell id="XrwRG26yM8gOVDg1mBpr-45" value="" style="endArrow=classic;html=1;exitX=0.5;exitY=1;exitDx=0;exitDy=0;entryX=0.5;entryY=0;entryDx=0;entryDy=0;" edge="1" parent="1" source="XrwRG26yM8gOVDg1mBpr-19" target="XrwRG26yM8gOVDg1mBpr-44">
          <mxGeometry width="50" height="50" relative="1" as="geometry">
            <mxPoint x="960" y="390" as="sourcePoint" />
            <mxPoint x="1010" y="340" as="targetPoint" />
          </mxGeometry>
        </mxCell>
      </root>
    </mxGraphModel>
  </diagram>
</mxfile>
